<?xml version="1.0" encoding="UTF-8"?>
<svg width="500px" height="500px" viewBox="0 0 500 500" version="1.1" xmlns="http://www.w3.org/2000/svg" xmlns:xlink="http://www.w3.org/1999/xlink">
    <!-- Generator: Sketch 51.1 (57501) - http://www.bohemiancoding.com/sketch -->
    <title>sprites</title>
    <desc>Created with Sketch.</desc>
    <defs>
        <circle id="path-1" cx="16" cy="16" r="16"></circle>
        <circle id="path-3" cx="16" cy="16" r="16"></circle>
    </defs>
    <g id="sprites" stroke="none" stroke-width="1" fill="none" fill-rule="evenodd">
        <path d="M60,9.58 L59.58,10 L56.46,6.88 C56.2866658,7.0266674 56.1033343,7.1599994 55.91,7.28 C55.7166657,7.4000006 55.5133344,7.4999996 55.3,7.58 C55.0866656,7.6600004 54.8633345,7.7233331 54.63,7.77 C54.3966655,7.8166669 54.1600012,7.84 53.92,7.84 C53.3733306,7.84 52.8633357,7.7366677 52.39,7.53 C51.9166643,7.3233323 51.5033351,7.0433351 51.15,6.69 C50.7966649,6.3366649 50.5166677,5.9200024 50.31,5.44 C50.1033323,4.9599976 50,4.453336 50,3.92 C50,3.653332 50.0233331,3.3966679 50.07,3.15 C50.1166669,2.9033321 50.1899995,2.6600012 50.29,2.42 C50.3900005,2.1799988 50.5099993,1.9533344 50.65,1.74 C50.7900007,1.5266656 50.9533324,1.3266676 51.14,1.14 C51.3266676,0.9666658 51.5266656,0.8066674 51.74,0.66 C51.9533344,0.5133326 52.1766655,0.3933338 52.41,0.3 C52.6433345,0.2066662 52.8866654,0.1333336 53.14,0.08 C53.3933346,0.0266664 53.653332,0 53.92,0 C54.453336,0 54.9599976,0.1033323 55.44,0.31 C55.9200024,0.5166677 56.3366649,0.7966649 56.69,1.15 C57.0433351,1.5033351 57.3233323,1.9166643 57.53,2.39 C57.7366677,2.8633357 57.84,3.3733306 57.84,3.92 C57.84,4.1600012 57.8166669,4.3966655 57.77,4.63 C57.7233331,4.8633345 57.6600004,5.0866656 57.58,5.3 C57.4999996,5.5133344 57.4000006,5.7166657 57.28,5.91 C57.1599994,6.1033343 57.0266674,6.2866658 56.88,6.46 L60,9.58 Z M53.92,7.24 C54.3733356,7.24 54.799998,7.1500009 55.2,6.97 C55.600002,6.7899991 55.9499985,6.5500015 56.25,6.25 C56.5500015,5.9499985 56.7866658,5.600002 56.96,5.2 C57.1333342,4.799998 57.22,4.3733356 57.22,3.92 C57.22,3.4666644 57.1333342,3.0366687 56.96,2.63 C56.7866658,2.2233313 56.5500015,1.8700015 56.25,1.57 C55.9499985,1.2699985 55.600002,1.0333342 55.2,0.86 C54.799998,0.6866658 54.3733356,0.6 53.92,0.6 C53.6933322,0.6 53.4733344,0.6233331 53.26,0.67 C53.0466656,0.7166669 52.840001,0.7799996 52.64,0.86 C52.439999,0.9400004 52.2500009,1.0399994 52.07,1.16 C51.8899991,1.2800006 51.7266674,1.4199992 51.58,1.58 C51.4199992,1.7400008 51.2800006,1.9099991 51.16,2.09 C51.0399994,2.2700009 50.9366671,2.4566657 50.85,2.65 C50.7633329,2.8433343 50.7000002,3.0466656 50.66,3.26 C50.6199998,3.4733344 50.6,3.6933322 50.6,3.92 C50.6,4.3733356 50.6866658,4.8033313 50.86,5.21 C51.0333342,5.6166687 51.2699985,5.9666652 51.57,6.26 C51.8700015,6.5533348 52.2233313,6.7899991 52.63,6.97 C53.0366687,7.1500009 53.4666644,7.24 53.92,7.24 Z" id="" fill="#333333"></path>
        <path d="M60,59.58 L59.58,60 L56.46,56.88 C56.2866658,57.0266674 56.1033343,57.1599994 55.91,57.28 C55.7166657,57.4000006 55.5133344,57.4999996 55.3,57.58 C55.0866656,57.6600004 54.8633345,57.7233331 54.63,57.77 C54.3966655,57.8166669 54.1600012,57.84 53.92,57.84 C53.3733306,57.84 52.8633357,57.7366677 52.39,57.53 C51.9166643,57.3233323 51.5033351,57.0433351 51.15,56.69 C50.7966649,56.3366649 50.5166677,55.9200024 50.31,55.44 C50.1033323,54.9599976 50,54.453336 50,53.92 C50,53.653332 50.0233331,53.3966679 50.07,53.15 C50.1166669,52.9033321 50.1899995,52.6600012 50.29,52.42 C50.3900005,52.1799988 50.5099993,51.9533344 50.65,51.74 C50.7900007,51.5266656 50.9533324,51.3266676 51.14,51.14 C51.3266676,50.9666658 51.5266656,50.8066674 51.74,50.66 C51.9533344,50.5133326 52.1766655,50.3933338 52.41,50.3 C52.6433345,50.2066662 52.8866654,50.1333336 53.14,50.08 C53.3933346,50.0266664 53.653332,50 53.92,50 C54.453336,50 54.9599976,50.1033323 55.44,50.31 C55.9200024,50.5166677 56.3366649,50.7966649 56.69,51.15 C57.0433351,51.5033351 57.3233323,51.9166643 57.53,52.39 C57.7366677,52.8633357 57.84,53.3733306 57.84,53.92 C57.84,54.1600012 57.8166669,54.3966655 57.77,54.63 C57.7233331,54.8633345 57.6600004,55.0866656 57.58,55.3 C57.4999996,55.5133344 57.4000006,55.7166657 57.28,55.91 C57.1599994,56.1033343 57.0266674,56.2866658 56.88,56.46 L60,59.58 Z M53.92,57.24 C54.3733356,57.24 54.799998,57.1500009 55.2,56.97 C55.600002,56.7899991 55.9499985,56.5500015 56.25,56.25 C56.5500015,55.9499985 56.7866658,55.600002 56.96,55.2 C57.1333342,54.799998 57.22,54.3733356 57.22,53.92 C57.22,53.4666644 57.1333342,53.0366687 56.96,52.63 C56.7866658,52.2233313 56.5500015,51.8700015 56.25,51.57 C55.9499985,51.2699985 55.600002,51.0333342 55.2,50.86 C54.799998,50.6866658 54.3733356,50.6 53.92,50.6 C53.6933322,50.6 53.4733344,50.6233331 53.26,50.67 C53.0466656,50.7166669 52.840001,50.7799996 52.64,50.86 C52.439999,50.9400004 52.2500009,51.0399994 52.07,51.16 C51.8899991,51.2800006 51.7266674,51.4199992 51.58,51.58 C51.4199992,51.7400008 51.2800006,51.9099991 51.16,52.09 C51.0399994,52.2700009 50.9366671,52.4566657 50.85,52.65 C50.7633329,52.8433343 50.7000002,53.0466656 50.66,53.26 C50.6199998,53.4733344 50.6,53.6933322 50.6,53.92 C50.6,54.3733356 50.6866658,54.8033313 50.86,55.21 C51.0333342,55.6166687 51.2699985,55.9666652 51.57,56.26 C51.8700015,56.5533348 52.2233313,56.7899991 52.63,56.97 C53.0366687,57.1500009 53.4666644,57.24 53.92,57.24 Z" id="-copy" fill="#D43029"></path>
        <path d="M100,0 L112,0.0275482094 L112,1.68044077 L100,1.70798898 L100,0 Z M100,5.81267218 L100,4.18732782 L112,4.15977961 L112,5.84022039 L100,5.81267218 Z M100,10 L100,8.31955923 L112,8.34710744 L112,9.97245179 L100,10 Z" id="" fill="#333333"></path>
        <path d="M100,50 L112,50.0275482 L112,51.6804408 L100,51.707989 L100,50 Z M100,55.8126722 L100,54.1873278 L112,54.1597796 L112,55.8402204 L100,55.8126722 Z M100,60 L100,58.3195592 L112,58.3471074 L112,59.9724518 L100,60 Z" id="-copy" fill="#D43029"></path>
        <path d="M100,100 L112,100.027548 L112,101.680441 L100,101.707989 L100,100 Z M100,105.812672 L100,104.187328 L112,104.15978 L112,105.84022 L100,105.812672 Z M100,110 L100,108.319559 L112,108.347107 L112,109.972452 L100,110 Z" id="-copy-2" fill="#FFFFFF"></path>
        <g id="Group-22" transform="translate(150.000000, 0.000000)">
            <circle id="Oval-2" fill="#D43029" cx="10" cy="10" r="10"></circle>
            <path d="M12.6054688,5 C12.7226568,5 12.836588,5.02278623 12.9472656,5.06835938 C13.0579433,5.11393252 13.1523434,5.17578086 13.2304688,5.25390625 C13.3085941,5.33203164 13.3736977,5.42643174 13.4257812,5.53710938 C13.4778648,5.64778701 13.4973959,5.76171816 13.484375,5.87890625 L13.5039062,14.1210938 C13.4908854,14.2382818 13.4648439,14.352213 13.4257812,14.4628906 C13.3867186,14.5735683 13.321615,14.6679684 13.2304688,14.7460938 C13.1393225,14.8242191 13.0449224,14.8860675 12.9472656,14.9316406 C12.8496089,14.9772138 12.7291674,15 12.5859375,15 L7.91796875,15 C7.77473887,15 7.65429736,14.9772138 7.55664062,14.9316406 C7.45898389,14.8860675 7.36458379,14.8242191 7.2734375,14.7460938 C7.18229121,14.6679684 7.1171877,14.5735683 7.078125,14.4628906 C7.0390623,14.352213 7.0130209,14.2382818 7,14.1210938 L7.01953125,5.87890625 C7.00651035,5.76171816 7.02604141,5.64778701 7.078125,5.53710938 C7.13020859,5.42643174 7.19531211,5.33203164 7.2734375,5.25390625 C7.35156289,5.17578086 7.44596299,5.11393252 7.55664062,5.06835938 C7.66731826,5.02278623 7.78124941,5 7.8984375,5 L12.6054688,5 Z M7.8984375,5.5859375 C7.8593748,5.5859375 7.8203127,5.59244785 7.78125,5.60546875 C7.7421873,5.61848965 7.71289072,5.64127588 7.69335938,5.67382812 C7.67382803,5.70638037 7.6510418,5.73893213 7.625,5.77148438 C7.5989582,5.80403662 7.59244785,5.83984355 7.60546875,5.87890625 L7.5859375,6.7578125 L12.9179688,6.7578125 L12.8984375,5.87890625 C12.9114584,5.83984355 12.904948,5.80403662 12.8789062,5.77148438 C12.8528645,5.73893213 12.8300782,5.70638037 12.8105469,5.67382812 C12.7910155,5.64127588 12.7617189,5.61848965 12.7226562,5.60546875 C12.6835936,5.59244785 12.6445314,5.5859375 12.6054688,5.5859375 L7.8984375,5.5859375 Z M12.9179688,7.34375 L7.5859375,7.34375 L7.60546875,12.0507812 L12.8984375,12.0507812 L12.9179688,7.34375 Z M12.5859375,14.4140625 C12.651042,14.4140625 12.6966145,14.4075521 12.7226562,14.3945312 C12.748698,14.3815104 12.7779946,14.3587241 12.8105469,14.3261719 C12.8430991,14.2936196 12.8658854,14.2610679 12.8789062,14.2285156 C12.8919271,14.1959634 12.9049479,14.1601564 12.9179688,14.1210938 L12.8984375,12.65625 L7.60546875,12.65625 L7.5859375,14.1210938 C7.5989584,14.1601564 7.6119791,14.1959634 7.625,14.2285156 C7.6380209,14.2610679 7.66080713,14.2936196 7.69335938,14.3261719 C7.72591162,14.3587241 7.7552082,14.3815104 7.78125,14.3945312 C7.8072918,14.4075521 7.85286426,14.4140625 7.91796875,14.4140625 L12.5859375,14.4140625 Z M10.5546875,13.5351562 C10.5416666,13.5742189 10.5319011,13.6100259 10.5253906,13.6425781 C10.5188802,13.6751304 10.4993491,13.704427 10.4667969,13.7304688 C10.4342446,13.7565105 10.4016929,13.7792968 10.3691406,13.7988281 C10.3365884,13.8183595 10.2942711,13.828125 10.2421875,13.828125 C10.2161457,13.828125 10.1803388,13.8183595 10.1347656,13.7988281 C10.0891925,13.7792968 10.0566407,13.7565105 10.0371094,13.7304688 C10.017578,13.704427 9.99804697,13.6751304 9.97851562,13.6425781 C9.95898428,13.6100259 9.9557291,13.5742189 9.96875,13.5351562 C9.9557291,13.4960936 9.95898428,13.4570314 9.97851562,13.4179688 C9.99804697,13.3789061 10.017578,13.3463543 10.0371094,13.3203125 C10.0566407,13.2942707 10.0891925,13.2747396 10.1347656,13.2617188 C10.1803388,13.2486979 10.2161457,13.2421875 10.2421875,13.2421875 C10.2942711,13.2421875 10.3365884,13.2486979 10.3691406,13.2617188 C10.4016929,13.2747396 10.4342446,13.2942707 10.4667969,13.3203125 C10.4993491,13.3463543 10.5188802,13.3789061 10.5253906,13.4179688 C10.5319011,13.4570314 10.5416666,13.4960936 10.5546875,13.5351562 Z" id="" fill="#FFFFFF"></path>
        </g>
        <g id="Group-22-Copy" transform="translate(200.000000, 0.000000)">
            <circle id="Oval-2" fill="#3F67A4" cx="10" cy="10" r="10"></circle>
            <path d="M5,6 L15,6 L15,13.65625 L5,13.65625 L5,6 Z M10,10.609375 L14.0625,6.5859375 L5.9375,6.5859375 L10,10.609375 Z M8.37890625,9.828125 L5.5859375,7.07421875 L5.5859375,12.5820312 L8.37890625,9.828125 Z M8.80859375,10.2578125 L5.95703125,13.0703125 L13.984375,13.0703125 L11.171875,10.2773438 L10,11.4296875 L8.80859375,10.2578125 Z M11.5820312,9.8671875 L14.4140625,12.640625 L14.4140625,7.07421875 L11.5820312,9.8671875 Z" id="" fill="#FFFFFF"></path>
        </g>
        <g id="Group-22-Copy-3" transform="translate(150.000000, 50.000000)">
            <circle id="Oval-2" fill="#B72822" cx="10" cy="10" r="10"></circle>
            <path d="M12.6054688,5 C12.7226568,5 12.836588,5.02278623 12.9472656,5.06835938 C13.0579433,5.11393252 13.1523434,5.17578086 13.2304688,5.25390625 C13.3085941,5.33203164 13.3736977,5.42643174 13.4257812,5.53710938 C13.4778648,5.64778701 13.4973959,5.76171816 13.484375,5.87890625 L13.5039062,14.1210938 C13.4908854,14.2382818 13.4648439,14.352213 13.4257812,14.4628906 C13.3867186,14.5735683 13.321615,14.6679684 13.2304688,14.7460938 C13.1393225,14.8242191 13.0449224,14.8860675 12.9472656,14.9316406 C12.8496089,14.9772138 12.7291674,15 12.5859375,15 L7.91796875,15 C7.77473887,15 7.65429736,14.9772138 7.55664062,14.9316406 C7.45898389,14.8860675 7.36458379,14.8242191 7.2734375,14.7460938 C7.18229121,14.6679684 7.1171877,14.5735683 7.078125,14.4628906 C7.0390623,14.352213 7.0130209,14.2382818 7,14.1210938 L7.01953125,5.87890625 C7.00651035,5.76171816 7.02604141,5.64778701 7.078125,5.53710938 C7.13020859,5.42643174 7.19531211,5.33203164 7.2734375,5.25390625 C7.35156289,5.17578086 7.44596299,5.11393252 7.55664062,5.06835938 C7.66731826,5.02278623 7.78124941,5 7.8984375,5 L12.6054688,5 Z M7.8984375,5.5859375 C7.8593748,5.5859375 7.8203127,5.59244785 7.78125,5.60546875 C7.7421873,5.61848965 7.71289072,5.64127588 7.69335938,5.67382812 C7.67382803,5.70638037 7.6510418,5.73893213 7.625,5.77148438 C7.5989582,5.80403662 7.59244785,5.83984355 7.60546875,5.87890625 L7.5859375,6.7578125 L12.9179688,6.7578125 L12.8984375,5.87890625 C12.9114584,5.83984355 12.904948,5.80403662 12.8789062,5.77148438 C12.8528645,5.73893213 12.8300782,5.70638037 12.8105469,5.67382812 C12.7910155,5.64127588 12.7617189,5.61848965 12.7226562,5.60546875 C12.6835936,5.59244785 12.6445314,5.5859375 12.6054688,5.5859375 L7.8984375,5.5859375 Z M12.9179688,7.34375 L7.5859375,7.34375 L7.60546875,12.0507812 L12.8984375,12.0507812 L12.9179688,7.34375 Z M12.5859375,14.4140625 C12.651042,14.4140625 12.6966145,14.4075521 12.7226562,14.3945312 C12.748698,14.3815104 12.7779946,14.3587241 12.8105469,14.3261719 C12.8430991,14.2936196 12.8658854,14.2610679 12.8789062,14.2285156 C12.8919271,14.1959634 12.9049479,14.1601564 12.9179688,14.1210938 L12.8984375,12.65625 L7.60546875,12.65625 L7.5859375,14.1210938 C7.5989584,14.1601564 7.6119791,14.1959634 7.625,14.2285156 C7.6380209,14.2610679 7.66080713,14.2936196 7.69335938,14.3261719 C7.72591162,14.3587241 7.7552082,14.3815104 7.78125,14.3945312 C7.8072918,14.4075521 7.85286426,14.4140625 7.91796875,14.4140625 L12.5859375,14.4140625 Z M10.5546875,13.5351562 C10.5416666,13.5742189 10.5319011,13.6100259 10.5253906,13.6425781 C10.5188802,13.6751304 10.4993491,13.704427 10.4667969,13.7304688 C10.4342446,13.7565105 10.4016929,13.7792968 10.3691406,13.7988281 C10.3365884,13.8183595 10.2942711,13.828125 10.2421875,13.828125 C10.2161457,13.828125 10.1803388,13.8183595 10.1347656,13.7988281 C10.0891925,13.7792968 10.0566407,13.7565105 10.0371094,13.7304688 C10.017578,13.704427 9.99804697,13.6751304 9.97851562,13.6425781 C9.95898428,13.6100259 9.9557291,13.5742189 9.96875,13.5351562 C9.9557291,13.4960936 9.95898428,13.4570314 9.97851562,13.4179688 C9.99804697,13.3789061 10.017578,13.3463543 10.0371094,13.3203125 C10.0566407,13.2942707 10.0891925,13.2747396 10.1347656,13.2617188 C10.1803388,13.2486979 10.2161457,13.2421875 10.2421875,13.2421875 C10.2942711,13.2421875 10.3365884,13.2486979 10.3691406,13.2617188 C10.4016929,13.2747396 10.4342446,13.2942707 10.4667969,13.3203125 C10.4993491,13.3463543 10.5188802,13.3789061 10.5253906,13.4179688 C10.5319011,13.4570314 10.5416666,13.4960936 10.5546875,13.5351562 Z" id="" fill="#FFFFFF"></path>
        </g>
        <g id="Group-22-Copy-2" transform="translate(200.000000, 50.000000)">
            <circle id="Oval-2" fill="#305081" cx="10" cy="10" r="10"></circle>
            <path d="M5,6 L15,6 L15,13.65625 L5,13.65625 L5,6 Z M10,10.609375 L14.0625,6.5859375 L5.9375,6.5859375 L10,10.609375 Z M8.37890625,9.828125 L5.5859375,7.07421875 L5.5859375,12.5820312 L8.37890625,9.828125 Z M8.80859375,10.2578125 L5.95703125,13.0703125 L13.984375,13.0703125 L11.171875,10.2773438 L10,11.4296875 L8.80859375,10.2578125 Z M11.5820312,9.8671875 L14.4140625,12.640625 L14.4140625,7.07421875 L11.5820312,9.8671875 Z" id="" fill="#FFFFFF"></path>
        </g>
        <path d="M11.676,5.58882236 L12.488,5.58882236 L12.516,14 L1.512,14 L1.54,5.58882236 L2.352,5.58882236 L2.38,13.1616766 L4.9,13.1616766 L4.928,8.10379242 L9.1,8.10379242 L9.128,13.1616766 L11.648,13.1616766 L11.676,5.58882236 Z M8.26,13.1616766 L8.288,8.94211577 L5.74,8.94211577 L5.768,13.1616766 L8.26,13.1616766 Z M14,5.14171657 L13.524,5.81237525 L7,1.06187625 L0.532,5.81237525 L0,5.14171657 L7.028,0 L14,5.14171657 Z" id="" fill="#000000"></path>
        <path d="M11.676,55.5888224 L12.488,55.5888224 L12.516,64 L1.512,64 L1.54,55.5888224 L2.352,55.5888224 L2.38,63.1616766 L4.9,63.1616766 L4.928,58.1037924 L9.1,58.1037924 L9.128,63.1616766 L11.648,63.1616766 L11.676,55.5888224 Z M8.26,63.1616766 L8.288,58.9421158 L5.74,58.9421158 L5.768,63.1616766 L8.26,63.1616766 Z M14,55.1417166 L13.524,55.8123752 L7,51.0618762 L0.532,55.8123752 L0,55.1417166 L7.028,50 L14,55.1417166 Z" id="-copy" fill="#D43029"></path>
        <circle id="Oval-3" fill="#3B5998" cx="266" cy="16" r="16"></circle>
        <path d="M269.507812,13.59375 L269.261719,16 L267.320312,16 L267.320312,23 L264.449219,23 L264.449219,16 L263,16 L263,13.59375 L264.421875,13.59375 L264.421875,12.1445312 C264.421875,11.6523413 264.472005,11.2102884 264.572266,10.8183594 C264.672527,10.4264303 264.850259,10.0983086 265.105469,9.83398438 C265.360678,9.56966014 265.684243,9.36458406 266.076172,9.21875 C266.468101,9.07291594 266.955726,9 267.539062,9 L269.480469,9 L269.480469,11.40625 L268.277344,11.40625 C268.040363,11.40625 267.858074,11.4290362 267.730469,11.4746094 C267.602864,11.5201825 267.507162,11.583984 267.443359,11.6660156 C267.379557,11.7480473 267.338542,11.8483067 267.320312,11.9667969 C267.302083,12.0852871 267.292969,12.2265617 267.292969,12.390625 L267.292969,13.59375 L269.507812,13.59375 Z" id="" fill="#FFFFFF"></path>
        <g id="Group" transform="translate(300.000000, 0.000000)">
            <mask id="mask-2" fill="white">
                <use xlink:href="#path-1"></use>
            </mask>
            <use id="Mask" fill="#018FE5" xlink:href="#path-1"></use>
            <path d="M11.296906,20.0664379 C11.296906,20.7270664 10.7928626,21.0573757 9.78476057,21.0573757 L5.4992761,21.0573757 C4.4997537,21.0573757 4,20.701328 4,19.9892219 C4,19.6503281 4.19732764,19.2192101 4.59198885,18.695855 L8.4141777,13.6253418 L5.66014263,13.6253418 C4.64775085,13.6253418 4.14156255,13.303612 4.14156255,12.6601426 C4.14156255,12.0123835 4.64775085,11.6885088 5.66014263,11.6885088 L9.28285698,11.6885088 C10.5054488,11.6885088 11.1167355,12.035977 11.1167355,12.7309239 C11.1167355,13.0397892 10.9086835,13.4751969 10.4925733,14.0371602 L6.76690439,19.0819347 L9.78476057,19.0819347 C10.7928626,19.0819347 11.296906,19.4100991 11.296906,20.0664379 Z M15.6248592,20.4267789 C15.1958797,20.9544238 14.6167659,21.2182423 13.8875007,21.2182423 C12.935166,21.2182423 12.1587246,20.8364562 11.5581533,20.0728725 C11.0090594,19.369346 10.7345166,18.5285587 10.7345166,17.5504853 C10.7345166,16.5681221 11.0240735,15.723045 11.6031959,15.0152287 C12.2209265,14.2559349 13.0080922,13.8762936 13.9647166,13.8762936 C14.6639533,13.8762936 15.2173286,14.1229532 15.6248592,14.6162797 C15.8650878,14.1744307 16.1953971,13.9535096 16.6157971,13.9535096 C17.2978746,13.9535096 17.6389082,14.4554081 17.6389082,15.4592203 L17.6389082,19.6353156 C17.6389082,20.6434175 17.2978746,21.147461 16.6157971,21.147461 C16.1696583,21.147461 15.839349,20.907236 15.6248592,20.4267789 Z M12.8836935,17.5247466 C12.8836935,17.9837548 12.9887919,18.3698306 13.1989919,18.6829857 C13.4435103,19.0433285 13.7866888,19.2234972 14.2285377,19.2234972 C14.6618071,19.2234972 15.0006959,19.0411836 15.2452142,18.676551 C15.4554142,18.3591061 15.5605126,17.9751752 15.5605126,17.5247466 C15.5605126,17.0828977 15.4511245,16.7054013 15.2323449,16.3922462 C14.9878265,16.040483 14.6532275,15.864604 14.2285377,15.864604 C13.7952684,15.864604 13.4563796,16.0383381 13.2118612,16.3858116 C12.9930816,16.6946769 12.8836935,17.0743181 12.8836935,17.5247466 Z M18.4857097,12.5185801 C18.4857097,11.5061883 18.8331779,11 19.5281248,11 C20.2102023,11 20.551236,11.5061883 20.551236,12.5185801 L20.551236,19.6353156 C20.551236,20.6434175 20.2102023,21.147461 19.5281248,21.147461 C18.8331779,21.147461 18.4857097,20.6434175 18.4857097,19.6353156 L18.4857097,12.5185801 Z M23.1225267,17.5247466 C23.1225267,18.0009139 23.22977,18.4020038 23.4442598,18.7280283 C23.6887781,19.1055303 24.0383912,19.2942785 24.4931096,19.2942785 C24.9435381,19.2942785 25.2931512,19.1055303 25.5419594,18.7280283 C25.7564491,18.4020038 25.8636924,18.0009139 25.8636924,17.5247466 C25.8636924,17.0657385 25.7521594,16.6732281 25.52909,16.3472036 C25.2759921,15.9739914 24.9306687,15.7873881 24.4931096,15.7873881 C24.0469708,15.7873881 23.6995026,15.9718465 23.4506944,16.3407689 C23.2319148,16.6667934 23.1225267,17.0614487 23.1225267,17.5247466 Z M20.9733498,17.5504853 C20.9733498,16.4909057 21.2929348,15.6136557 21.9321143,14.9187088 C22.5884531,14.1980231 23.4421096,13.8376857 24.4931096,13.8376857 C25.5483993,13.8376857 26.4020558,14.1958782 27.0541048,14.9122741 C27.6847047,15.607221 28,16.4866159 28,17.5504853 C28,18.6143546 27.6847047,19.4937495 27.0541048,20.1886964 C26.4020558,20.9093821 25.5483993,21.2697195 24.4931096,21.2697195 C23.4421096,21.2697195 22.5884531,20.9093821 21.9321143,20.1886964 C21.2929348,19.4894597 20.9733498,18.6100648 20.9733498,17.5504853 Z" id="Zalo" fill="#FFFFFF" mask="url(#mask-2)"></path>
        </g>
        <circle id="Oval-3-Copy-2" fill="#F5A623" cx="366" cy="16" r="16"></circle>
        <path d="M359,11 L373,11 L373,21.71875 L359,21.71875 L359,11 Z M366,17.453125 L371.6875,11.8203125 L360.3125,11.8203125 L366,17.453125 Z M363.730469,16.359375 L359.820312,12.5039062 L359.820312,20.2148438 L363.730469,16.359375 Z M364.332031,16.9609375 L360.339844,20.8984375 L371.578125,20.8984375 L367.640625,16.9882812 L366,18.6015625 L364.332031,16.9609375 Z M368.214844,16.4140625 L372.179688,20.296875 L372.179688,12.5039062 L368.214844,16.4140625 Z" id="" fill="#FFFFFF"></path>
        <circle id="Oval-3-Copy-3" fill="#AAAAAA" cx="416" cy="16" r="16"></circle>
        <path d="M423,13.9492188 L423,20.5390625 L420.539062,20.5390625 L420.539062,23.0820312 L411.460938,23.0820312 L411.460938,20.5390625 L409,20.5390625 L409,13.9492188 L411.460938,13.9492188 L411.460938,9 L416.820312,9 L420.511719,12.4453125 L420.511719,13.9492188 L423,13.9492188 Z M417.230469,10.5039062 L417.230469,12.28125 L419.144531,12.28125 L417.230469,10.5039062 Z M412.28125,9.8203125 L412.28125,13.9492188 L419.691406,13.9492188 L419.691406,13.1289062 L416.410156,13.1289062 L416.410156,9.8203125 L412.28125,9.8203125 Z M419.71875,22.2617188 L419.71875,18.1328125 L412.28125,18.1328125 L412.28125,22.2617188 L419.71875,22.2617188 Z M422.179688,19.71875 L422.179688,14.7695312 L409.820312,14.7695312 L409.820312,19.71875 L411.460938,19.71875 L411.460938,17.3125 L420.539062,17.3125 L420.539062,19.71875 L422.179688,19.71875 Z M418.050781,18.8710938 L418.050781,19.71875 L413.128906,19.71875 L413.128906,18.8710938 L418.050781,18.8710938 Z M416.410156,20.5390625 L416.410156,21.359375 L413.128906,21.359375 L413.128906,20.5390625 L416.410156,20.5390625 Z M411.460938,15.5898438 L411.460938,16.4101562 L410.640625,16.4101562 L410.640625,15.5898438 L411.460938,15.5898438 Z M413.128906,15.5898438 L413.128906,16.4101562 L412.28125,16.4101562 L412.28125,15.5898438 L413.128906,15.5898438 Z" id="" fill="#FFFFFF"></path>
        <circle id="Oval-3-Copy" fill="#344F86" cx="266" cy="66" r="16"></circle>
        <path d="M269.507812,63.59375 L269.261719,66 L267.320312,66 L267.320312,73 L264.449219,73 L264.449219,66 L263,66 L263,63.59375 L264.421875,63.59375 L264.421875,62.1445312 C264.421875,61.6523413 264.472005,61.2102884 264.572266,60.8183594 C264.672527,60.4264303 264.850259,60.0983086 265.105469,59.8339844 C265.360678,59.5696601 265.684243,59.3645841 266.076172,59.21875 C266.468101,59.0729159 266.955726,59 267.539062,59 L269.480469,59 L269.480469,61.40625 L268.277344,61.40625 C268.040363,61.40625 267.858074,61.4290362 267.730469,61.4746094 C267.602864,61.5201825 267.507162,61.583984 267.443359,61.6660156 C267.379557,61.7480473 267.338542,61.8483067 267.320312,61.9667969 C267.302083,62.0852871 267.292969,62.2265617 267.292969,62.390625 L267.292969,63.59375 L269.507812,63.59375 Z" id="-copy" fill="#FFFFFF"></path>
        <g id="Group-Copy" transform="translate(300.000000, 50.000000)">
            <mask id="mask-4" fill="white">
                <use xlink:href="#path-3"></use>
            </mask>
            <use id="Mask" fill="#0384D3" xlink:href="#path-3"></use>
            <path d="M11.296906,20.0664379 C11.296906,20.7270664 10.7928626,21.0573757 9.78476057,21.0573757 L5.4992761,21.0573757 C4.4997537,21.0573757 4,20.701328 4,19.9892219 C4,19.6503281 4.19732764,19.2192101 4.59198885,18.695855 L8.4141777,13.6253418 L5.66014263,13.6253418 C4.64775085,13.6253418 4.14156255,13.303612 4.14156255,12.6601426 C4.14156255,12.0123835 4.64775085,11.6885088 5.66014263,11.6885088 L9.28285698,11.6885088 C10.5054488,11.6885088 11.1167355,12.035977 11.1167355,12.7309239 C11.1167355,13.0397892 10.9086835,13.4751969 10.4925733,14.0371602 L6.76690439,19.0819347 L9.78476057,19.0819347 C10.7928626,19.0819347 11.296906,19.4100991 11.296906,20.0664379 Z M15.6248592,20.4267789 C15.1958797,20.9544238 14.6167659,21.2182423 13.8875007,21.2182423 C12.935166,21.2182423 12.1587246,20.8364562 11.5581533,20.0728725 C11.0090594,19.369346 10.7345166,18.5285587 10.7345166,17.5504853 C10.7345166,16.5681221 11.0240735,15.723045 11.6031959,15.0152287 C12.2209265,14.2559349 13.0080922,13.8762936 13.9647166,13.8762936 C14.6639533,13.8762936 15.2173286,14.1229532 15.6248592,14.6162797 C15.8650878,14.1744307 16.1953971,13.9535096 16.6157971,13.9535096 C17.2978746,13.9535096 17.6389082,14.4554081 17.6389082,15.4592203 L17.6389082,19.6353156 C17.6389082,20.6434175 17.2978746,21.147461 16.6157971,21.147461 C16.1696583,21.147461 15.839349,20.907236 15.6248592,20.4267789 Z M12.8836935,17.5247466 C12.8836935,17.9837548 12.9887919,18.3698306 13.1989919,18.6829857 C13.4435103,19.0433285 13.7866888,19.2234972 14.2285377,19.2234972 C14.6618071,19.2234972 15.0006959,19.0411836 15.2452142,18.676551 C15.4554142,18.3591061 15.5605126,17.9751752 15.5605126,17.5247466 C15.5605126,17.0828977 15.4511245,16.7054013 15.2323449,16.3922462 C14.9878265,16.040483 14.6532275,15.864604 14.2285377,15.864604 C13.7952684,15.864604 13.4563796,16.0383381 13.2118612,16.3858116 C12.9930816,16.6946769 12.8836935,17.0743181 12.8836935,17.5247466 Z M18.4857097,12.5185801 C18.4857097,11.5061883 18.8331779,11 19.5281248,11 C20.2102023,11 20.551236,11.5061883 20.551236,12.5185801 L20.551236,19.6353156 C20.551236,20.6434175 20.2102023,21.147461 19.5281248,21.147461 C18.8331779,21.147461 18.4857097,20.6434175 18.4857097,19.6353156 L18.4857097,12.5185801 Z M23.1225267,17.5247466 C23.1225267,18.0009139 23.22977,18.4020038 23.4442598,18.7280283 C23.6887781,19.1055303 24.0383912,19.2942785 24.4931096,19.2942785 C24.9435381,19.2942785 25.2931512,19.1055303 25.5419594,18.7280283 C25.7564491,18.4020038 25.8636924,18.0009139 25.8636924,17.5247466 C25.8636924,17.0657385 25.7521594,16.6732281 25.52909,16.3472036 C25.2759921,15.9739914 24.9306687,15.7873881 24.4931096,15.7873881 C24.0469708,15.7873881 23.6995026,15.9718465 23.4506944,16.3407689 C23.2319148,16.6667934 23.1225267,17.0614487 23.1225267,17.5247466 Z M20.9733498,17.5504853 C20.9733498,16.4909057 21.2929348,15.6136557 21.9321143,14.9187088 C22.5884531,14.1980231 23.4421096,13.8376857 24.4931096,13.8376857 C25.5483993,13.8376857 26.4020558,14.1958782 27.0541048,14.9122741 C27.6847047,15.607221 28,16.4866159 28,17.5504853 C28,18.6143546 27.6847047,19.4937495 27.0541048,20.1886964 C26.4020558,20.9093821 25.5483993,21.2697195 24.4931096,21.2697195 C23.4421096,21.2697195 22.5884531,20.9093821 21.9321143,20.1886964 C21.2929348,19.4894597 20.9733498,18.6100648 20.9733498,17.5504853 Z" id="Zalo" fill="#FFFFFF" mask="url(#mask-4)"></path>
        </g>
        <circle id="Oval-3-Copy-5" fill="#E09822" cx="366" cy="66" r="16"></circle>
        <path d="M359,61 L373,61 L373,71.71875 L359,71.71875 L359,61 Z M366,67.453125 L371.6875,61.8203125 L360.3125,61.8203125 L366,67.453125 Z M363.730469,66.359375 L359.820312,62.5039062 L359.820312,70.2148438 L363.730469,66.359375 Z M364.332031,66.9609375 L360.339844,70.8984375 L371.578125,70.8984375 L367.640625,66.9882812 L366,68.6015625 L364.332031,66.9609375 Z M368.214844,66.4140625 L372.179688,70.296875 L372.179688,62.5039062 L368.214844,66.4140625 Z" id="-copy" fill="#FFFFFF"></path>
        <circle id="Oval-3-Copy-4" fill="#979797" cx="416" cy="66" r="16"></circle>
        <path d="M423,63.9492188 L423,70.5390625 L420.539062,70.5390625 L420.539062,73.0820312 L411.460938,73.0820312 L411.460938,70.5390625 L409,70.5390625 L409,63.9492188 L411.460938,63.9492188 L411.460938,59 L416.820312,59 L420.511719,62.4453125 L420.511719,63.9492188 L423,63.9492188 Z M417.230469,60.5039062 L417.230469,62.28125 L419.144531,62.28125 L417.230469,60.5039062 Z M412.28125,59.8203125 L412.28125,63.9492188 L419.691406,63.9492188 L419.691406,63.1289062 L416.410156,63.1289062 L416.410156,59.8203125 L412.28125,59.8203125 Z M419.71875,72.2617188 L419.71875,68.1328125 L412.28125,68.1328125 L412.28125,72.2617188 L419.71875,72.2617188 Z M422.179688,69.71875 L422.179688,64.7695312 L409.820312,64.7695312 L409.820312,69.71875 L411.460938,69.71875 L411.460938,67.3125 L420.539062,67.3125 L420.539062,69.71875 L422.179688,69.71875 Z M418.050781,68.8710938 L418.050781,69.71875 L413.128906,69.71875 L413.128906,68.8710938 L418.050781,68.8710938 Z M416.410156,70.5390625 L416.410156,71.359375 L413.128906,71.359375 L413.128906,70.5390625 L416.410156,70.5390625 Z M411.460938,65.5898438 L411.460938,66.4101562 L410.640625,66.4101562 L410.640625,65.5898438 L411.460938,65.5898438 Z M413.128906,65.5898438 L413.128906,66.4101562 L412.28125,66.4101562 L412.28125,65.5898438 L413.128906,65.5898438 Z" id="-copy" fill="#FFFFFF"></path>
        <g id="Group-2" transform="translate(0.000000, 150.000000)" fill="#000000" fill-rule="nonzero">
            <path d="M4.56869601,2.73282012 C4.46050763,2.89973932 4.27837269,3 4.08333333,3 L1.75,3 C1.4278339,3 1.16666667,3.26862915 1.16666667,3.6 L1.16666667,10.2 C1.16666667,10.5313708 1.4278339,10.8 1.75,10.8 L12.25,10.8 C12.5721661,10.8 12.8333333,10.5313708 12.8333333,10.2 L12.8333333,3.6 C12.8333333,3.26862915 12.5721661,3 12.25,3 L9.91666667,3 C9.72162731,3 9.53949237,2.89973932 9.43130399,2.73282012 L8.43780947,1.2 L5.56219053,1.2 L4.56869601,2.73282012 Z M12.25,1.8 C13.2164983,1.8 14,2.60588745 14,3.6 L14,10.2 C14,11.1941125 13.2164983,12 12.25,12 L1.75,12 C0.783501688,12 0,11.1941125 0,10.2 L0,3.6 C0,2.60588745 0.783501688,1.8 1.75,1.8 L3.77114281,1.8 L4.76463733,0.267179882 C4.8728257,0.100260681 5.05496064,0 5.25,0 L8.75,0 C8.94503936,0 9.1271743,0.100260681 9.23536267,0.267179882 L10.2288572,1.8 L12.25,1.8 Z" id="Shape"></path>
            <path d="M7,9 C5.61928813,9 4.5,7.88071187 4.5,6.5 C4.5,5.11928813 5.61928813,4 7,4 C8.38071187,4 9.5,5.11928813 9.5,6.5 C9.5,7.88071187 8.38071187,9 7,9 Z M7,7.5625 C7.58680255,7.5625 8.0625,7.08680255 8.0625,6.5 C8.0625,5.91319745 7.58680255,5.4375 7,5.4375 C6.41319745,5.4375 5.9375,5.91319745 5.9375,6.5 C5.9375,7.08680255 6.41319745,7.5625 7,7.5625 Z" id="Combined-Shape"></path>
        </g>
        <g id="Group-4" transform="translate(100.000000, 150.000000)" fill="#000000" fill-rule="nonzero">
            <path d="M1.2,9.4117647 C1.2,9.73663809 0.93137085,10 0.6,10 C0.26862915,10 0,9.73663809 0,9.4117647 L0,5.8823529 C4.93781101e-08,2.63361909 2.68629154,0 6,0 C9.31370846,0 12,2.63361909 12,5.88235291 L12,9.4117647 C12,9.73663809 11.7313708,10 11.4,10 C11.0686292,10 10.8,9.73663809 10.8,9.4117647 L10.8,5.88235292 C10.8,3.28336587 8.65096677,1.1764706 6,1.1764706 C3.34903323,1.1764706 1.20000004,3.28336587 1.2,5.88235291 L1.2,9.4117647 Z" id="Shape"></path>
            <path d="M12,10.3333333 C12,11.2538079 11.1941125,12 10.2,12 L9.6,12 C8.60588745,12 7.8,11.2538079 7.8,10.3333333 L7.8,8.66666667 C7.8,7.74619208 8.60588745,7 9.6,7 L11.4,7 C11.7313708,7 12,7.24873069 12,7.55555556 L12,10.3333333 Z M0,10.3333333 L0,7.55555556 C0,7.24873069 0.26862915,7 0.6,7 L2.4,7 C3.39411255,7 4.2,7.74619208 4.2,8.66666667 L4.2,10.3333333 C4.2,11.2538079 3.39411255,12 2.4,12 L1.8,12 C0.80588745,12 0,11.2538079 0,10.3333333 Z" id="Shape"></path>
        </g>
        <g id="Group-3" transform="translate(50.000000, 150.000000)" fill="#000000" fill-rule="nonzero">
            <path d="M6,12 C2.6862915,12 0,9.3137085 0,6 C0,2.6862915 2.6862915,0 6,0 C9.3137085,0 12,2.6862915 12,6 C12,9.3137085 9.3137085,12 6,12 Z M6,10.9090909 C8.71121604,10.9090909 10.9090909,8.71121604 10.9090909,6 C10.9090909,3.28878396 8.71121604,1.09090909 6,1.09090909 C3.28878396,1.09090909 1.09090909,3.28878396 1.09090909,6 C1.09090909,8.71121604 3.28878396,10.9090909 6,10.9090909 Z" id="Oval"></path>
            <path d="M5.2773501,3.58478705 L8.2773501,5.58411471 C8.57421663,5.7819592 8.57421663,6.2180408 8.2773501,6.41588529 L5.2773501,8.41521295 C4.94507273,8.63665673 4.5,8.3985411 4.5,7.99932766 L4.5,4.00067234 C4.5,3.6014589 4.94507273,3.36334327 5.2773501,3.58478705 Z" id="Shape"></path>
        </g>
        <g id="Group-2-Copy" transform="translate(0.000000, 200.000000)" fill="#FFFFFF" fill-rule="nonzero">
            <path d="M4.56869601,2.73282012 C4.46050763,2.89973932 4.27837269,3 4.08333333,3 L1.75,3 C1.4278339,3 1.16666667,3.26862915 1.16666667,3.6 L1.16666667,10.2 C1.16666667,10.5313708 1.4278339,10.8 1.75,10.8 L12.25,10.8 C12.5721661,10.8 12.8333333,10.5313708 12.8333333,10.2 L12.8333333,3.6 C12.8333333,3.26862915 12.5721661,3 12.25,3 L9.91666667,3 C9.72162731,3 9.53949237,2.89973932 9.43130399,2.73282012 L8.43780947,1.2 L5.56219053,1.2 L4.56869601,2.73282012 Z M12.25,1.8 C13.2164983,1.8 14,2.60588745 14,3.6 L14,10.2 C14,11.1941125 13.2164983,12 12.25,12 L1.75,12 C0.783501688,12 0,11.1941125 0,10.2 L0,3.6 C0,2.60588745 0.783501688,1.8 1.75,1.8 L3.77114281,1.8 L4.76463733,0.267179882 C4.8728257,0.100260681 5.05496064,0 5.25,0 L8.75,0 C8.94503936,0 9.1271743,0.100260681 9.23536267,0.267179882 L10.2288572,1.8 L12.25,1.8 Z" id="Shape"></path>
            <path d="M7,9 C5.61928813,9 4.5,7.88071187 4.5,6.5 C4.5,5.11928813 5.61928813,4 7,4 C8.38071187,4 9.5,5.11928813 9.5,6.5 C9.5,7.88071187 8.38071187,9 7,9 Z" id="Oval"></path>
        </g>
        <g id="Group-4-Copy" transform="translate(100.000000, 200.000000)" fill="#FFFFFF" fill-rule="nonzero">
            <path d="M1.2,9.4117647 C1.2,9.73663809 0.93137085,10 0.6,10 C0.26862915,10 0,9.73663809 0,9.4117647 L0,5.8823529 C4.93781101e-08,2.63361909 2.68629154,0 6,0 C9.31370846,0 12,2.63361909 12,5.88235291 L12,9.4117647 C12,9.73663809 11.7313708,10 11.4,10 C11.0686292,10 10.8,9.73663809 10.8,9.4117647 L10.8,5.88235292 C10.8,3.28336587 8.65096677,1.1764706 6,1.1764706 C3.34903323,1.1764706 1.20000004,3.28336587 1.2,5.88235291 L1.2,9.4117647 Z" id="Shape"></path>
            <path d="M12,10.3333333 C12,11.2538079 11.1941125,12 10.2,12 L9.6,12 C8.60588745,12 7.8,11.2538079 7.8,10.3333333 L7.8,8.66666667 C7.8,7.74619208 8.60588745,7 9.6,7 L11.4,7 C11.7313708,7 12,7.24873069 12,7.55555556 L12,10.3333333 Z M0,10.3333333 L0,7.55555556 C0,7.24873069 0.26862915,7 0.6,7 L2.4,7 C3.39411255,7 4.2,7.74619208 4.2,8.66666667 L4.2,10.3333333 C4.2,11.2538079 3.39411255,12 2.4,12 L1.8,12 C0.80588745,12 0,11.2538079 0,10.3333333 Z" id="Shape"></path>
        </g>
        <g id="Group-3-Copy" transform="translate(50.000000, 200.000000)" fill="#FFFFFF" fill-rule="nonzero">
            <path d="M6,12 C2.6862915,12 0,9.3137085 0,6 C0,2.6862915 2.6862915,0 6,0 C9.3137085,0 12,2.6862915 12,6 C12,9.3137085 9.3137085,12 6,12 Z M6,10.9090909 C8.71121604,10.9090909 10.9090909,8.71121604 10.9090909,6 C10.9090909,3.28878396 8.71121604,1.09090909 6,1.09090909 C3.28878396,1.09090909 1.09090909,3.28878396 1.09090909,6 C1.09090909,8.71121604 3.28878396,10.9090909 6,10.9090909 Z" id="Oval"></path>
            <path d="M5.2773501,3.58478705 L8.2773501,5.58411471 C8.57421663,5.7819592 8.57421663,6.2180408 8.2773501,6.41588529 L5.2773501,8.41521295 C4.94507273,8.63665673 4.5,8.3985411 4.5,7.99932766 L4.5,4.00067234 C4.5,3.6014589 4.94507273,3.36334327 5.2773501,3.58478705 Z" id="Shape"></path>
        </g>
        <path d="M28.0237376,117.642124 L28.0800643,117.642124 C28.868642,117.642124 29.6290447,117.801715 30.3612954,118.120901 C31.0935461,118.440087 31.7225213,118.871921 32.2482397,119.416415 C32.7739582,119.960909 33.2057918,120.599272 33.5437537,121.331523 C33.8817155,122.063773 34.0319186,122.842952 33.9943672,123.669081 C34.0319186,124.49521 33.8817155,125.265 33.5437537,125.978475 C33.2057918,126.69195 32.7739582,127.320925 32.2482397,127.865419 C31.7225213,128.409913 31.0935461,128.841747 30.3612954,129.160933 C29.6290447,129.48012 28.868642,129.63971 28.0800643,129.63971 C27.216384,129.63971 26.4278182,129.48012 25.7143431,129.160933 C25.0008681,128.841747 24.3625053,128.409913 23.7992355,127.865419 C23.2359657,127.320925 22.8041321,126.69195 22.5037215,125.978475 C22.203311,125.265 22.0343326,124.49521 21.9967813,123.669081 C22.0343326,123.631529 22.0437203,123.612754 22.0249446,123.612754 C22.006169,123.612754 22.0155567,123.603366 22.053108,123.584591 C22.0906593,123.565815 22.100047,123.54704 22.0812713,123.528264 C22.0624957,123.509488 22.0718834,123.500101 22.1094347,123.500101 L21.9967813,123.500101 C22.2220892,120.533546 22.8229013,118.177237 23.7992355,116.4311 C24.7755698,114.684964 25.8363786,113.370688 26.9816938,112.488232 C28.1270089,111.605776 29.150267,111.042514 30.0514986,110.798431 C30.9527302,110.554347 31.44089,110.413532 31.5159927,110.375981 L31.6286461,112.065782 C31.6286461,112.103333 31.3470154,112.187822 30.7837456,112.319252 C30.2204759,112.450681 29.5821131,112.7417 28.868638,113.192315 C28.155163,113.642931 27.4041479,114.309457 26.6155702,115.191913 C25.8269926,116.074369 25.1886298,117.24783 24.7004626,118.712331 C24.8882192,118.524575 25.1229114,118.374372 25.4045463,118.261718 C25.6861812,118.149064 25.9584242,118.045799 26.2212834,117.951921 C26.4841426,117.858043 26.7751609,117.782941 27.0943471,117.726614 C27.4135333,117.670287 27.7233271,117.642124 28.0237376,117.642124 Z M28.0237376,127.949909 C28.6245587,127.949909 29.1784323,127.837257 29.6853751,127.611949 C30.1923179,127.386641 30.6523146,127.076848 31.0653791,126.682559 C31.4784436,126.28827 31.7882373,125.828273 31.9947696,125.302555 C32.2013018,124.776836 32.3233418,124.23235 32.3608931,123.669081 C32.3233418,123.06826 32.2013018,122.504998 31.9947696,121.97928 C31.7882373,121.453561 31.4784436,120.993565 31.0653791,120.599276 C30.6523146,120.204987 30.1923179,119.895193 29.6853751,119.669885 C29.1784323,119.444577 28.6245587,119.331925 28.0237376,119.331925 C27.4604678,119.331925 26.9065942,119.444577 26.3621001,119.669885 C25.817606,119.895193 25.3576093,120.204987 24.9820961,120.599276 C24.6065829,120.993565 24.2967892,121.453561 24.0527056,121.97928 C23.8086221,122.504998 23.7053575,123.06826 23.7429088,123.669081 C23.7053575,124.23235 23.8086221,124.776836 24.0527056,125.302555 C24.2967892,125.828273 24.6065829,126.28827 24.9820961,126.682559 C25.3576093,127.076848 25.817606,127.386641 26.3621001,127.611949 C26.9065942,127.837257 27.4604678,127.949909 28.0237376,127.949909 Z M11.9998096,117.642185 C12.8520793,117.645743 13.6309187,117.805313 14.3363508,118.120901 C15.0498258,118.440087 15.6881887,118.871921 16.2514584,119.416415 C16.8147282,119.960909 17.2465619,120.599272 17.5469724,121.331523 C17.8473829,122.063773 18.0163613,122.842952 18.0539127,123.669081 C18.0163613,124.49521 17.8473829,125.265 17.5469724,125.978475 C17.2465619,126.69195 16.8147282,127.320925 16.2514584,127.865419 C15.6881887,128.409913 15.0498258,128.841747 14.3363508,129.160933 C13.6228758,129.48012 12.8343099,129.63971 11.9706296,129.63971 C11.182052,129.63971 10.4216492,129.48012 9.6893985,129.160933 C8.95714781,128.841747 8.32817267,128.409913 7.80245423,127.865419 C7.27673578,127.320925 6.84490211,126.69195 6.50694025,125.978475 C6.16897839,125.265 6.01877538,124.49521 6.05632669,123.669081 C6.01877538,123.631529 6.00938769,123.612754 6.02816335,123.612754 C6.04693901,123.612754 6.04693901,123.603366 6.02816335,123.584591 C6.00938769,123.565815 6.00938769,123.54704 6.02816335,123.528264 C6.04693901,123.509488 6.03755132,123.500101 6,123.500101 L6.05632669,123.500101 C6.20653196,120.533546 6.78856866,118.177237 7.80245423,116.4311 C8.8163398,114.684964 9.87714861,113.370688 10.9849125,112.488232 C12.0926763,111.605776 13.1159344,111.042514 14.0547173,110.798431 C14.9935003,110.554347 15.4628847,110.413532 15.4628847,110.375981 L15.6881915,112.065782 C15.6130888,112.103333 15.3126828,112.187822 14.7869644,112.319252 C14.2612459,112.450681 13.6228831,112.7417 12.8718567,113.192315 C12.1208304,113.642931 11.3698153,114.309457 10.618789,115.191913 C9.86776261,116.074369 9.21062441,117.24783 8.64735465,118.712331 C8.91021387,118.524575 9.16368146,118.374372 9.40776503,118.261718 C9.65184859,118.149064 9.92409156,118.045799 10.2245021,117.951921 C10.5249126,117.858043 10.815931,117.782941 11.0975659,117.726614 C11.3716431,117.671799 11.6723882,117.643656 11.9998096,117.642185 Z M11.9998096,117.642185 C11.9900925,117.642145 11.9803658,117.642124 11.9706296,117.642124 L12.0269563,117.642124 C12.0178871,117.642124 12.0088382,117.642145 11.9998096,117.642185 Z M12.0269563,127.949909 C12.5902261,127.949909 13.1440997,127.837257 13.6885938,127.611949 C14.2330879,127.386641 14.6930847,127.076848 15.0685978,126.682559 C15.444111,126.28827 15.7539047,125.828273 15.9979883,125.302555 C16.2420719,124.776836 16.3453364,124.23235 16.3077851,123.669081 C16.3453364,123.06826 16.2420719,122.504998 15.9979883,121.97928 C15.7539047,121.453561 15.444111,120.993565 15.0685978,120.599276 C14.6930847,120.204987 14.2330879,119.895193 13.6885938,119.669885 C13.1440997,119.444577 12.5902261,119.331925 12.0269563,119.331925 C11.4261352,119.331925 10.8722616,119.444577 10.3653188,119.669885 C9.85837605,119.895193 9.39837931,120.204987 8.98531482,120.599276 C8.57225032,120.993565 8.2624566,121.453561 8.05592435,121.97928 C7.84939211,122.504998 7.72735216,123.06826 7.68980084,123.669081 C7.72735216,124.23235 7.84939211,124.776836 8.05592435,125.302555 C8.2624566,125.828273 8.57225032,126.28827 8.98531482,126.682559 C9.39837931,127.076848 9.85837605,127.386641 10.3653188,127.611949 C10.8722616,127.837257 11.4261352,127.949909 12.0269563,127.949909 Z" id="" fill="#D43029"></path>
    </g>
</svg>