<?xml version="1.0" encoding="UTF-8"?>
<svg width="500px" height="500px" viewBox="0 0 500 500" version="1.1" xmlns="http://www.w3.org/2000/svg" xmlns:xlink="http://www.w3.org/1999/xlink">
    <!-- Generator: Sketch 51.1 (57501) - http://www.bohemiancoding.com/sketch -->
    <title>sprites</title>
    <desc>Created with Sketch.</desc>
    <defs></defs>
    <g id="sprites" stroke="none" stroke-width="1" fill="none" fill-rule="evenodd">
        <path d="M60,9.58 L59.58,10 L56.46,6.88 C56.2866658,7.0266674 56.1033343,7.1599994 55.91,7.28 C55.7166657,7.4000006 55.5133344,7.4999996 55.3,7.58 C55.0866656,7.6600004 54.8633345,7.7233331 54.63,7.77 C54.3966655,7.8166669 54.1600012,7.84 53.92,7.84 C53.3733306,7.84 52.8633357,7.7366677 52.39,7.53 C51.9166643,7.3233323 51.5033351,7.0433351 51.15,6.69 C50.7966649,6.3366649 50.5166677,5.9200024 50.31,5.44 C50.1033323,4.9599976 50,4.453336 50,3.92 C50,3.653332 50.0233331,3.3966679 50.07,3.15 C50.1166669,2.9033321 50.1899995,2.6600012 50.29,2.42 C50.3900005,2.1799988 50.5099993,1.9533344 50.65,1.74 C50.7900007,1.5266656 50.9533324,1.3266676 51.14,1.14 C51.3266676,0.9666658 51.5266656,0.8066674 51.74,0.66 C51.9533344,0.5133326 52.1766655,0.3933338 52.41,0.3 C52.6433345,0.2066662 52.8866654,0.1333336 53.14,0.08 C53.3933346,0.0266664 53.653332,0 53.92,0 C54.453336,0 54.9599976,0.1033323 55.44,0.31 C55.9200024,0.5166677 56.3366649,0.7966649 56.69,1.15 C57.0433351,1.5033351 57.3233323,1.9166643 57.53,2.39 C57.7366677,2.8633357 57.84,3.3733306 57.84,3.92 C57.84,4.1600012 57.8166669,4.3966655 57.77,4.63 C57.7233331,4.8633345 57.6600004,5.0866656 57.58,5.3 C57.4999996,5.5133344 57.4000006,5.7166657 57.28,5.91 C57.1599994,6.1033343 57.0266674,6.2866658 56.88,6.46 L60,9.58 Z M53.92,7.24 C54.3733356,7.24 54.799998,7.1500009 55.2,6.97 C55.600002,6.7899991 55.9499985,6.5500015 56.25,6.25 C56.5500015,5.9499985 56.7866658,5.600002 56.96,5.2 C57.1333342,4.799998 57.22,4.3733356 57.22,3.92 C57.22,3.4666644 57.1333342,3.0366687 56.96,2.63 C56.7866658,2.2233313 56.5500015,1.8700015 56.25,1.57 C55.9499985,1.2699985 55.600002,1.0333342 55.2,0.86 C54.799998,0.6866658 54.3733356,0.6 53.92,0.6 C53.6933322,0.6 53.4733344,0.6233331 53.26,0.67 C53.0466656,0.7166669 52.840001,0.7799996 52.64,0.86 C52.439999,0.9400004 52.2500009,1.0399994 52.07,1.16 C51.8899991,1.2800006 51.7266674,1.4199992 51.58,1.58 C51.4199992,1.7400008 51.2800006,1.9099991 51.16,2.09 C51.0399994,2.2700009 50.9366671,2.4566657 50.85,2.65 C50.7633329,2.8433343 50.7000002,3.0466656 50.66,3.26 C50.6199998,3.4733344 50.6,3.6933322 50.6,3.92 C50.6,4.3733356 50.6866658,4.8033313 50.86,5.21 C51.0333342,5.6166687 51.2699985,5.9666652 51.57,6.26 C51.8700015,6.5533348 52.2233313,6.7899991 52.63,6.97 C53.0366687,7.1500009 53.4666644,7.24 53.92,7.24 Z" id="" fill="#333333"></path>
        <path d="M60,59.58 L59.58,60 L56.46,56.88 C56.2866658,57.0266674 56.1033343,57.1599994 55.91,57.28 C55.7166657,57.4000006 55.5133344,57.4999996 55.3,57.58 C55.0866656,57.6600004 54.8633345,57.7233331 54.63,57.77 C54.3966655,57.8166669 54.1600012,57.84 53.92,57.84 C53.3733306,57.84 52.8633357,57.7366677 52.39,57.53 C51.9166643,57.3233323 51.5033351,57.0433351 51.15,56.69 C50.7966649,56.3366649 50.5166677,55.9200024 50.31,55.44 C50.1033323,54.9599976 50,54.453336 50,53.92 C50,53.653332 50.0233331,53.3966679 50.07,53.15 C50.1166669,52.9033321 50.1899995,52.6600012 50.29,52.42 C50.3900005,52.1799988 50.5099993,51.9533344 50.65,51.74 C50.7900007,51.5266656 50.9533324,51.3266676 51.14,51.14 C51.3266676,50.9666658 51.5266656,50.8066674 51.74,50.66 C51.9533344,50.5133326 52.1766655,50.3933338 52.41,50.3 C52.6433345,50.2066662 52.8866654,50.1333336 53.14,50.08 C53.3933346,50.0266664 53.653332,50 53.92,50 C54.453336,50 54.9599976,50.1033323 55.44,50.31 C55.9200024,50.5166677 56.3366649,50.7966649 56.69,51.15 C57.0433351,51.5033351 57.3233323,51.9166643 57.53,52.39 C57.7366677,52.8633357 57.84,53.3733306 57.84,53.92 C57.84,54.1600012 57.8166669,54.3966655 57.77,54.63 C57.7233331,54.8633345 57.6600004,55.0866656 57.58,55.3 C57.4999996,55.5133344 57.4000006,55.7166657 57.28,55.91 C57.1599994,56.1033343 57.0266674,56.2866658 56.88,56.46 L60,59.58 Z M53.92,57.24 C54.3733356,57.24 54.799998,57.1500009 55.2,56.97 C55.600002,56.7899991 55.9499985,56.5500015 56.25,56.25 C56.5500015,55.9499985 56.7866658,55.600002 56.96,55.2 C57.1333342,54.799998 57.22,54.3733356 57.22,53.92 C57.22,53.4666644 57.1333342,53.0366687 56.96,52.63 C56.7866658,52.2233313 56.5500015,51.8700015 56.25,51.57 C55.9499985,51.2699985 55.600002,51.0333342 55.2,50.86 C54.799998,50.6866658 54.3733356,50.6 53.92,50.6 C53.6933322,50.6 53.4733344,50.6233331 53.26,50.67 C53.0466656,50.7166669 52.840001,50.7799996 52.64,50.86 C52.439999,50.9400004 52.2500009,51.0399994 52.07,51.16 C51.8899991,51.2800006 51.7266674,51.4199992 51.58,51.58 C51.4199992,51.7400008 51.2800006,51.9099991 51.16,52.09 C51.0399994,52.2700009 50.9366671,52.4566657 50.85,52.65 C50.7633329,52.8433343 50.7000002,53.0466656 50.66,53.26 C50.6199998,53.4733344 50.6,53.6933322 50.6,53.92 C50.6,54.3733356 50.6866658,54.8033313 50.86,55.21 C51.0333342,55.6166687 51.2699985,55.9666652 51.57,56.26 C51.8700015,56.5533348 52.2233313,56.7899991 52.63,56.97 C53.0366687,57.1500009 53.4666644,57.24 53.92,57.24 Z" id="-copy" fill="#D43029"></path>
        <path d="M100,0 L112,0.0275482094 L112,1.68044077 L100,1.70798898 L100,0 Z M100,5.81267218 L100,4.18732782 L112,4.15977961 L112,5.84022039 L100,5.81267218 Z M100,10 L100,8.31955923 L112,8.34710744 L112,9.97245179 L100,10 Z" id="" fill="#333333"></path>
        <path d="M100,50 L112,50.0275482 L112,51.6804408 L100,51.707989 L100,50 Z M100,55.8126722 L100,54.1873278 L112,54.1597796 L112,55.8402204 L100,55.8126722 Z M100,60 L100,58.3195592 L112,58.3471074 L112,59.9724518 L100,60 Z" id="-copy" fill="#D43029"></path>
        <path d="M100,100 L112,100.027548 L112,101.680441 L100,101.707989 L100,100 Z M100,105.812672 L100,104.187328 L112,104.15978 L112,105.84022 L100,105.812672 Z M100,110 L100,108.319559 L112,108.347107 L112,109.972452 L100,110 Z" id="-copy-2" fill="#FFFFFF"></path>
        <g id="Group-22" transform="translate(150.000000, 0.000000)">
            <circle id="Oval-2" fill="#D43029" cx="10" cy="10" r="10"></circle>
            <path d="M12.6054688,5 C12.7226568,5 12.836588,5.02278623 12.9472656,5.06835938 C13.0579433,5.11393252 13.1523434,5.17578086 13.2304688,5.25390625 C13.3085941,5.33203164 13.3736977,5.42643174 13.4257812,5.53710938 C13.4778648,5.64778701 13.4973959,5.76171816 13.484375,5.87890625 L13.5039062,14.1210938 C13.4908854,14.2382818 13.4648439,14.352213 13.4257812,14.4628906 C13.3867186,14.5735683 13.321615,14.6679684 13.2304688,14.7460938 C13.1393225,14.8242191 13.0449224,14.8860675 12.9472656,14.9316406 C12.8496089,14.9772138 12.7291674,15 12.5859375,15 L7.91796875,15 C7.77473887,15 7.65429736,14.9772138 7.55664062,14.9316406 C7.45898389,14.8860675 7.36458379,14.8242191 7.2734375,14.7460938 C7.18229121,14.6679684 7.1171877,14.5735683 7.078125,14.4628906 C7.0390623,14.352213 7.0130209,14.2382818 7,14.1210938 L7.01953125,5.87890625 C7.00651035,5.76171816 7.02604141,5.64778701 7.078125,5.53710938 C7.13020859,5.42643174 7.19531211,5.33203164 7.2734375,5.25390625 C7.35156289,5.17578086 7.44596299,5.11393252 7.55664062,5.06835938 C7.66731826,5.02278623 7.78124941,5 7.8984375,5 L12.6054688,5 Z M7.8984375,5.5859375 C7.8593748,5.5859375 7.8203127,5.59244785 7.78125,5.60546875 C7.7421873,5.61848965 7.71289072,5.64127588 7.69335938,5.67382812 C7.67382803,5.70638037 7.6510418,5.73893213 7.625,5.77148438 C7.5989582,5.80403662 7.59244785,5.83984355 7.60546875,5.87890625 L7.5859375,6.7578125 L12.9179688,6.7578125 L12.8984375,5.87890625 C12.9114584,5.83984355 12.904948,5.80403662 12.8789062,5.77148438 C12.8528645,5.73893213 12.8300782,5.70638037 12.8105469,5.67382812 C12.7910155,5.64127588 12.7617189,5.61848965 12.7226562,5.60546875 C12.6835936,5.59244785 12.6445314,5.5859375 12.6054688,5.5859375 L7.8984375,5.5859375 Z M12.9179688,7.34375 L7.5859375,7.34375 L7.60546875,12.0507812 L12.8984375,12.0507812 L12.9179688,7.34375 Z M12.5859375,14.4140625 C12.651042,14.4140625 12.6966145,14.4075521 12.7226562,14.3945312 C12.748698,14.3815104 12.7779946,14.3587241 12.8105469,14.3261719 C12.8430991,14.2936196 12.8658854,14.2610679 12.8789062,14.2285156 C12.8919271,14.1959634 12.9049479,14.1601564 12.9179688,14.1210938 L12.8984375,12.65625 L7.60546875,12.65625 L7.5859375,14.1210938 C7.5989584,14.1601564 7.6119791,14.1959634 7.625,14.2285156 C7.6380209,14.2610679 7.66080713,14.2936196 7.69335938,14.3261719 C7.72591162,14.3587241 7.7552082,14.3815104 7.78125,14.3945312 C7.8072918,14.4075521 7.85286426,14.4140625 7.91796875,14.4140625 L12.5859375,14.4140625 Z M10.5546875,13.5351562 C10.5416666,13.5742189 10.5319011,13.6100259 10.5253906,13.6425781 C10.5188802,13.6751304 10.4993491,13.704427 10.4667969,13.7304688 C10.4342446,13.7565105 10.4016929,13.7792968 10.3691406,13.7988281 C10.3365884,13.8183595 10.2942711,13.828125 10.2421875,13.828125 C10.2161457,13.828125 10.1803388,13.8183595 10.1347656,13.7988281 C10.0891925,13.7792968 10.0566407,13.7565105 10.0371094,13.7304688 C10.017578,13.704427 9.99804697,13.6751304 9.97851562,13.6425781 C9.95898428,13.6100259 9.9557291,13.5742189 9.96875,13.5351562 C9.9557291,13.4960936 9.95898428,13.4570314 9.97851562,13.4179688 C9.99804697,13.3789061 10.017578,13.3463543 10.0371094,13.3203125 C10.0566407,13.2942707 10.0891925,13.2747396 10.1347656,13.2617188 C10.1803388,13.2486979 10.2161457,13.2421875 10.2421875,13.2421875 C10.2942711,13.2421875 10.3365884,13.2486979 10.3691406,13.2617188 C10.4016929,13.2747396 10.4342446,13.2942707 10.4667969,13.3203125 C10.4993491,13.3463543 10.5188802,13.3789061 10.5253906,13.4179688 C10.5319011,13.4570314 10.5416666,13.4960936 10.5546875,13.5351562 Z" id="" fill="#FFFFFF"></path>
        </g>
        <g id="Group-22-Copy" transform="translate(200.000000, 0.000000)">
            <circle id="Oval-2" fill="#3F67A4" cx="10" cy="10" r="10"></circle>
            <path d="M5,6 L15,6 L15,13.65625 L5,13.65625 L5,6 Z M10,10.609375 L14.0625,6.5859375 L5.9375,6.5859375 L10,10.609375 Z M8.37890625,9.828125 L5.5859375,7.07421875 L5.5859375,12.5820312 L8.37890625,9.828125 Z M8.80859375,10.2578125 L5.95703125,13.0703125 L13.984375,13.0703125 L11.171875,10.2773438 L10,11.4296875 L8.80859375,10.2578125 Z M11.5820312,9.8671875 L14.4140625,12.640625 L14.4140625,7.07421875 L11.5820312,9.8671875 Z" id="" fill="#FFFFFF"></path>
        </g>
        <g id="Group-22-Copy-3" transform="translate(150.000000, 50.000000)">
            <circle id="Oval-2" fill="#B72822" cx="10" cy="10" r="10"></circle>
            <path d="M12.6054688,5 C12.7226568,5 12.836588,5.02278623 12.9472656,5.06835938 C13.0579433,5.11393252 13.1523434,5.17578086 13.2304688,5.25390625 C13.3085941,5.33203164 13.3736977,5.42643174 13.4257812,5.53710938 C13.4778648,5.64778701 13.4973959,5.76171816 13.484375,5.87890625 L13.5039062,14.1210938 C13.4908854,14.2382818 13.4648439,14.352213 13.4257812,14.4628906 C13.3867186,14.5735683 13.321615,14.6679684 13.2304688,14.7460938 C13.1393225,14.8242191 13.0449224,14.8860675 12.9472656,14.9316406 C12.8496089,14.9772138 12.7291674,15 12.5859375,15 L7.91796875,15 C7.77473887,15 7.65429736,14.9772138 7.55664062,14.9316406 C7.45898389,14.8860675 7.36458379,14.8242191 7.2734375,14.7460938 C7.18229121,14.6679684 7.1171877,14.5735683 7.078125,14.4628906 C7.0390623,14.352213 7.0130209,14.2382818 7,14.1210938 L7.01953125,5.87890625 C7.00651035,5.76171816 7.02604141,5.64778701 7.078125,5.53710938 C7.13020859,5.42643174 7.19531211,5.33203164 7.2734375,5.25390625 C7.35156289,5.17578086 7.44596299,5.11393252 7.55664062,5.06835938 C7.66731826,5.02278623 7.78124941,5 7.8984375,5 L12.6054688,5 Z M7.8984375,5.5859375 C7.8593748,5.5859375 7.8203127,5.59244785 7.78125,5.60546875 C7.7421873,5.61848965 7.71289072,5.64127588 7.69335938,5.67382812 C7.67382803,5.70638037 7.6510418,5.73893213 7.625,5.77148438 C7.5989582,5.80403662 7.59244785,5.83984355 7.60546875,5.87890625 L7.5859375,6.7578125 L12.9179688,6.7578125 L12.8984375,5.87890625 C12.9114584,5.83984355 12.904948,5.80403662 12.8789062,5.77148438 C12.8528645,5.73893213 12.8300782,5.70638037 12.8105469,5.67382812 C12.7910155,5.64127588 12.7617189,5.61848965 12.7226562,5.60546875 C12.6835936,5.59244785 12.6445314,5.5859375 12.6054688,5.5859375 L7.8984375,5.5859375 Z M12.9179688,7.34375 L7.5859375,7.34375 L7.60546875,12.0507812 L12.8984375,12.0507812 L12.9179688,7.34375 Z M12.5859375,14.4140625 C12.651042,14.4140625 12.6966145,14.4075521 12.7226562,14.3945312 C12.748698,14.3815104 12.7779946,14.3587241 12.8105469,14.3261719 C12.8430991,14.2936196 12.8658854,14.2610679 12.8789062,14.2285156 C12.8919271,14.1959634 12.9049479,14.1601564 12.9179688,14.1210938 L12.8984375,12.65625 L7.60546875,12.65625 L7.5859375,14.1210938 C7.5989584,14.1601564 7.6119791,14.1959634 7.625,14.2285156 C7.6380209,14.2610679 7.66080713,14.2936196 7.69335938,14.3261719 C7.72591162,14.3587241 7.7552082,14.3815104 7.78125,14.3945312 C7.8072918,14.4075521 7.85286426,14.4140625 7.91796875,14.4140625 L12.5859375,14.4140625 Z M10.5546875,13.5351562 C10.5416666,13.5742189 10.5319011,13.6100259 10.5253906,13.6425781 C10.5188802,13.6751304 10.4993491,13.704427 10.4667969,13.7304688 C10.4342446,13.7565105 10.4016929,13.7792968 10.3691406,13.7988281 C10.3365884,13.8183595 10.2942711,13.828125 10.2421875,13.828125 C10.2161457,13.828125 10.1803388,13.8183595 10.1347656,13.7988281 C10.0891925,13.7792968 10.0566407,13.7565105 10.0371094,13.7304688 C10.017578,13.704427 9.99804697,13.6751304 9.97851562,13.6425781 C9.95898428,13.6100259 9.9557291,13.5742189 9.96875,13.5351562 C9.9557291,13.4960936 9.95898428,13.4570314 9.97851562,13.4179688 C9.99804697,13.3789061 10.017578,13.3463543 10.0371094,13.3203125 C10.0566407,13.2942707 10.0891925,13.2747396 10.1347656,13.2617188 C10.1803388,13.2486979 10.2161457,13.2421875 10.2421875,13.2421875 C10.2942711,13.2421875 10.3365884,13.2486979 10.3691406,13.2617188 C10.4016929,13.2747396 10.4342446,13.2942707 10.4667969,13.3203125 C10.4993491,13.3463543 10.5188802,13.3789061 10.5253906,13.4179688 C10.5319011,13.4570314 10.5416666,13.4960936 10.5546875,13.5351562 Z" id="" fill="#FFFFFF"></path>
        </g>
        <g id="Group-22-Copy-2" transform="translate(200.000000, 50.000000)">
            <circle id="Oval-2" fill="#305081" cx="10" cy="10" r="10"></circle>
            <path d="M5,6 L15,6 L15,13.65625 L5,13.65625 L5,6 Z M10,10.609375 L14.0625,6.5859375 L5.9375,6.5859375 L10,10.609375 Z M8.37890625,9.828125 L5.5859375,7.07421875 L5.5859375,12.5820312 L8.37890625,9.828125 Z M8.80859375,10.2578125 L5.95703125,13.0703125 L13.984375,13.0703125 L11.171875,10.2773438 L10,11.4296875 L8.80859375,10.2578125 Z M11.5820312,9.8671875 L14.4140625,12.640625 L14.4140625,7.07421875 L11.5820312,9.8671875 Z" id="" fill="#FFFFFF"></path>
        </g>
        <path d="M11.676,5.58882236 L12.488,5.58882236 L12.516,14 L1.512,14 L1.54,5.58882236 L2.352,5.58882236 L2.38,13.1616766 L4.9,13.1616766 L4.928,8.10379242 L9.1,8.10379242 L9.128,13.1616766 L11.648,13.1616766 L11.676,5.58882236 Z M8.26,13.1616766 L8.288,8.94211577 L5.74,8.94211577 L5.768,13.1616766 L8.26,13.1616766 Z M14,5.14171657 L13.524,5.81237525 L7,1.06187625 L0.532,5.81237525 L0,5.14171657 L7.028,0 L14,5.14171657 Z" id="" fill="#000000"></path>
        <path d="M11.676,55.5888224 L12.488,55.5888224 L12.516,64 L1.512,64 L1.54,55.5888224 L2.352,55.5888224 L2.38,63.1616766 L4.9,63.1616766 L4.928,58.1037924 L9.1,58.1037924 L9.128,63.1616766 L11.648,63.1616766 L11.676,55.5888224 Z M8.26,63.1616766 L8.288,58.9421158 L5.74,58.9421158 L5.768,63.1616766 L8.26,63.1616766 Z M14,55.1417166 L13.524,55.8123752 L7,51.0618762 L0.532,55.8123752 L0,55.1417166 L7.028,50 L14,55.1417166 Z" id="-copy" fill="#D43029"></path>
    </g>
</svg>